<mxfile host="Electron" modified="2024-03-22T20:45:41.173Z" agent="Mozilla/5.0 (Windows NT 10.0; Win64; x64) AppleWebKit/537.36 (KHTML, like Gecko) draw.io/23.1.5 Chrome/120.0.6099.109 Electron/28.1.0 Safari/537.36" etag="R5bhv1zERINqF4Ffbh9Z" version="23.1.5" type="device">
  <diagram name="Página-1" id="7-nu8wdvUh4XEmAaOwXu">
    <mxGraphModel dx="1420" dy="830" grid="1" gridSize="10" guides="1" tooltips="1" connect="1" arrows="1" fold="1" page="1" pageScale="1" pageWidth="827" pageHeight="1169" background="#ffffff" math="0" shadow="0">
      <root>
        <mxCell id="0" />
        <mxCell id="1" parent="0" />
        <mxCell id="JB9zGX9foIIa3e5yfllj-2" value="&lt;font color=&quot;#000000&quot; style=&quot;font-size: 15px;&quot;&gt;&lt;b&gt;&lt;font style=&quot;font-size: 15px;&quot;&gt;4 Hacer un programa para ingresar por teclado la cantidad de asientos totales en&lt;br&gt;&lt;br&gt;un avión y la cantidad de pasajes ocupados y luego calcular e informar el&lt;br&gt;&lt;br&gt;porcentaje de ocupación y el porcentaje de no ocupación del mismo.&lt;br&gt;&lt;br&gt;&lt;/font&gt;Ejemplo si el avión tiene 200 asientos totales y se vendieron 80 pasajes, el&lt;br&gt;porcentaje de ocupación que se informará será de un 40% y el porcentaje de no&lt;br&gt;ocupación será de un 60%.&lt;/b&gt;&lt;/font&gt;&lt;b&gt;&lt;font color=&quot;#000000&quot;&gt;&lt;br&gt;&lt;/font&gt;&lt;/b&gt;" style="text;whiteSpace=wrap;html=1;" vertex="1" parent="1">
          <mxGeometry x="80" y="20" width="630" height="200" as="geometry" />
        </mxCell>
        <mxCell id="JB9zGX9foIIa3e5yfllj-21" value="" style="group" vertex="1" connectable="0" parent="1">
          <mxGeometry x="100" y="235" width="470" height="415" as="geometry" />
        </mxCell>
        <mxCell id="JB9zGX9foIIa3e5yfllj-3" value="" style="strokeWidth=2;html=1;shape=mxgraph.flowchart.start_2;whiteSpace=wrap;rounded=0;labelBackgroundColor=none;strokeColor=#000000;align=center;verticalAlign=middle;fontFamily=Helvetica;fontSize=12;fontColor=default;fillColor=#d5e8d4;aspect=fixed;" vertex="1" parent="JB9zGX9foIIa3e5yfllj-21">
          <mxGeometry x="220" y="5" width="40" height="40" as="geometry" />
        </mxCell>
        <mxCell id="JB9zGX9foIIa3e5yfllj-5" value="" style="shape=trapezoid;perimeter=trapezoidPerimeter;whiteSpace=wrap;html=1;fixedSize=1;rounded=0;labelBackgroundColor=none;strokeColor=#121211;strokeWidth=2;align=center;verticalAlign=middle;fontFamily=Helvetica;fontSize=12;fontColor=default;fillColor=#d5e8d4;direction=west;container=1;aspect=fixed;" vertex="1" parent="JB9zGX9foIIa3e5yfllj-21">
          <mxGeometry x="81.88" y="65" width="316.25" height="55" as="geometry">
            <mxRectangle x="-1020" y="-650" width="50" height="40" as="alternateBounds" />
          </mxGeometry>
        </mxCell>
        <mxCell id="JB9zGX9foIIa3e5yfllj-10" value="&lt;b&gt;&lt;font color=&quot;#000000&quot; style=&quot;font-size: 16px;&quot;&gt;asientos_totales, pasajes_ocupados&lt;/font&gt;&lt;/b&gt;" style="text;strokeColor=none;align=center;fillColor=none;html=1;verticalAlign=middle;whiteSpace=wrap;rounded=0;aspect=fixed;" vertex="1" parent="JB9zGX9foIIa3e5yfllj-5">
          <mxGeometry x="8.129999999999995" y="-5" width="300" height="60" as="geometry" />
        </mxCell>
        <mxCell id="JB9zGX9foIIa3e5yfllj-15" value="" style="line;strokeWidth=2;direction=south;html=1;hachureGap=4;strokeColor=#000000;aspect=fixed;" vertex="1" parent="JB9zGX9foIIa3e5yfllj-5">
          <mxGeometry x="153.13" y="-20" width="10" height="20" as="geometry" />
        </mxCell>
        <mxCell id="JB9zGX9foIIa3e5yfllj-6" value="" style="shape=trapezoid;perimeter=trapezoidPerimeter;whiteSpace=wrap;html=1;fixedSize=1;rounded=0;labelBackgroundColor=none;strokeColor=#0F140C;strokeWidth=2;align=center;verticalAlign=middle;fontFamily=Helvetica;fontSize=12;fontColor=default;fillColor=#d5e8d4;aspect=fixed;" vertex="1" parent="JB9zGX9foIIa3e5yfllj-21">
          <mxGeometry x="70.00999999999999" y="295" width="340" height="50" as="geometry" />
        </mxCell>
        <mxCell id="JB9zGX9foIIa3e5yfllj-7" value="&lt;b&gt;&lt;font color=&quot;#000000&quot; style=&quot;font-size: 16px;&quot;&gt;I&lt;/font&gt;&lt;/b&gt;" style="text;strokeColor=none;align=center;fillColor=none;html=1;verticalAlign=middle;whiteSpace=wrap;rounded=0;aspect=fixed;" vertex="1" parent="JB9zGX9foIIa3e5yfllj-21">
          <mxGeometry x="190" width="100" height="50" as="geometry" />
        </mxCell>
        <mxCell id="JB9zGX9foIIa3e5yfllj-9" value="" style="group;aspect=fixed;" vertex="1" connectable="0" parent="JB9zGX9foIIa3e5yfllj-21">
          <mxGeometry x="165" y="365" width="140" height="50" as="geometry" />
        </mxCell>
        <mxCell id="JB9zGX9foIIa3e5yfllj-4" value="" style="strokeWidth=2;html=1;shape=mxgraph.flowchart.start_2;whiteSpace=wrap;rounded=0;labelBackgroundColor=none;strokeColor=#000000;align=center;verticalAlign=middle;fontFamily=Helvetica;fontSize=12;fontColor=default;fillColor=#d5e8d4;container=1;aspect=fixed;" vertex="1" parent="JB9zGX9foIIa3e5yfllj-9">
          <mxGeometry x="50" y="5" width="40" height="40" as="geometry" />
        </mxCell>
        <mxCell id="JB9zGX9foIIa3e5yfllj-8" value="&lt;b&gt;&lt;font color=&quot;#000000&quot; style=&quot;font-size: 16px;&quot;&gt;F&lt;/font&gt;&lt;/b&gt;" style="text;strokeColor=none;align=center;fillColor=none;html=1;verticalAlign=middle;whiteSpace=wrap;rounded=0;aspect=fixed;" vertex="1" parent="JB9zGX9foIIa3e5yfllj-9">
          <mxGeometry width="140" height="50" as="geometry" />
        </mxCell>
        <mxCell id="JB9zGX9foIIa3e5yfllj-19" value="" style="line;strokeWidth=2;direction=south;html=1;hachureGap=4;strokeColor=#000000;aspect=fixed;" vertex="1" parent="JB9zGX9foIIa3e5yfllj-9">
          <mxGeometry x="65" y="-20" width="10" height="30" as="geometry" />
        </mxCell>
        <mxCell id="JB9zGX9foIIa3e5yfllj-11" value="" style="rounded=0;whiteSpace=wrap;html=1;labelBackgroundColor=none;strokeColor=#0f100e;strokeWidth=2;align=center;verticalAlign=middle;fontFamily=Helvetica;fontSize=12;fontColor=default;fillColor=#d5e8d4;aspect=fixed;" vertex="1" parent="JB9zGX9foIIa3e5yfllj-21">
          <mxGeometry y="155" width="470" height="110" as="geometry" />
        </mxCell>
        <mxCell id="JB9zGX9foIIa3e5yfllj-12" value="&lt;b style=&quot;font-size: 14px;&quot;&gt;&lt;font color=&quot;#000000&quot; style=&quot;font-size: 14px;&quot;&gt;porcentaje_ocupado &lt;/font&gt;&lt;font color=&quot;#000000&quot; style=&quot;font-size: 14px;&quot;&gt;= pasajes_ocupados * 100 / asientos_totales&amp;nbsp;&lt;/font&gt;&lt;/b&gt;" style="text;strokeColor=none;align=center;fillColor=none;html=1;verticalAlign=middle;whiteSpace=wrap;rounded=0;aspect=fixed;" vertex="1" parent="JB9zGX9foIIa3e5yfllj-21">
          <mxGeometry x="10" y="145" width="460" height="90" as="geometry" />
        </mxCell>
        <mxCell id="JB9zGX9foIIa3e5yfllj-13" value="&lt;font size=&quot;1&quot; color=&quot;#000000&quot;&gt;&lt;b style=&quot;font-size: 15px;&quot;&gt;no_ocupado = 100 - porcentaje_ocupado&lt;/b&gt;&lt;/font&gt;" style="text;strokeColor=none;align=center;fillColor=none;html=1;verticalAlign=middle;whiteSpace=wrap;rounded=0;aspect=fixed;" vertex="1" parent="JB9zGX9foIIa3e5yfllj-21">
          <mxGeometry x="90" y="195" width="300" height="70" as="geometry" />
        </mxCell>
        <mxCell id="JB9zGX9foIIa3e5yfllj-14" value="&lt;b&gt;&lt;font color=&quot;#000000&quot; style=&quot;font-size: 15px;&quot;&gt;porcentaje_ocupado, no_ocupadp&lt;/font&gt;&lt;/b&gt;" style="text;strokeColor=none;align=center;fillColor=none;html=1;verticalAlign=middle;whiteSpace=wrap;rounded=0;aspect=fixed;" vertex="1" parent="JB9zGX9foIIa3e5yfllj-21">
          <mxGeometry x="100" y="292.5" width="290" height="55" as="geometry" />
        </mxCell>
        <mxCell id="JB9zGX9foIIa3e5yfllj-17" value="" style="line;strokeWidth=2;direction=south;html=1;hachureGap=4;strokeColor=#000000;aspect=fixed;" vertex="1" parent="JB9zGX9foIIa3e5yfllj-21">
          <mxGeometry x="230" y="115" width="10" height="40" as="geometry" />
        </mxCell>
        <mxCell id="JB9zGX9foIIa3e5yfllj-18" value="" style="line;strokeWidth=2;direction=south;html=1;hachureGap=4;strokeColor=#000000;aspect=fixed;" vertex="1" parent="JB9zGX9foIIa3e5yfllj-21">
          <mxGeometry x="230" y="265" width="10" height="30" as="geometry" />
        </mxCell>
      </root>
    </mxGraphModel>
  </diagram>
</mxfile>
